<svg width="9" height="9" viewBox="0 0 9 9" fill="none" xmlns="http://www.w3.org/2000/svg">
<g clip-path="url(#clip0_50_1351)">
<rect width="1" height="1" transform="matrix(-1 0 0 1 1 8)" fill="#AA393B"/>
<rect width="1" height="1" transform="matrix(-1 0 0 1 3 6)" fill="#AA393B"/>
<rect width="1" height="1" transform="matrix(-1 0 0 1 2 7)" fill="#AA393B"/>
<rect width="1" height="1" transform="matrix(-1 0 0 1 4 5)" fill="#AA393B"/>
<rect width="1" height="1" transform="matrix(-1 0 0 1 6 3)" fill="#AA393B"/>
<rect width="1" height="1" transform="matrix(-1 0 0 1 5 4)" fill="#AA393B"/>
<rect width="1" height="1" transform="matrix(-1 0 0 1 7 2)" fill="#AA393B"/>
<rect width="1" height="1" transform="matrix(-1 0 0 1 9 0)" fill="#AA393B"/>
<rect width="1" height="1" transform="matrix(-1 0 0 1 8 1)" fill="#AA393B"/>
<rect x="8" y="8" width="1" height="1" fill="#AA393B"/>
<rect x="6" y="6" width="1" height="1" fill="#AA393B"/>
<rect x="7" y="7" width="1" height="1" fill="#AA393B"/>
<rect x="5" y="5" width="1" height="1" fill="#AA393B"/>
<rect x="3" y="3" width="1" height="1" fill="#AA393B"/>
<rect x="2" y="2" width="1" height="1" fill="#AA393B"/>
<rect width="1" height="1" fill="#AA393B"/>
<rect x="1" y="1" width="1" height="1" fill="#AA393B"/>
</g>
<defs>
<clipPath id="clip0_50_1351">
<rect width="9" height="9" fill="white" transform="matrix(-1 0 0 -1 9 9)"/>
</clipPath>
</defs>
</svg>
