<svg width="9" height="9" viewBox="0 0 9 9" fill="none" xmlns="http://www.w3.org/2000/svg">
<rect x="5" y="3" width="3" height="1" fill="#DBC622"/>
<rect x="6" y="2" width="1" height="3" fill="#DBC622"/>
<rect x="6" y="3" width="1" height="1" fill="#F8E132"/>
<rect x="6" y="3" width="1" height="1" fill="#FFF184"/>
<rect x="1" y="2" width="2" height="1" fill="#6B6B6B"/>
<rect x="1" y="1" width="2" height="1" fill="#7C7C7C"/>
<rect x="1" y="1" width="2" height="1" fill="#7C7C7C"/>
<rect x="1" y="1" width="2" height="1" fill="#7C7C7C"/>
<rect x="1" y="1" width="2" height="1" fill="#7C7C7C"/>
<rect x="2" y="2" width="1" height="1" fill="#959595"/>
<rect x="2" y="5" width="2" height="3" fill="#6F420F"/>
<rect x="2" y="5" width="2" height="3" fill="#6F420F"/>
<rect x="1" y="6" width="1" height="1" fill="#6F420F"/>
<rect x="1" y="6" width="1" height="1" fill="#6F420F"/>
<rect x="4" y="5" width="1" height="1" fill="#9A6120"/>
<rect x="5" y="6" width="1" height="1" fill="#9A6120"/>
<rect x="3" y="6" width="1" height="1" fill="#9A6120"/>
<rect x="4" y="6" width="1" height="1" fill="#EEA95B"/>
<rect x="4" y="7" width="1" height="1" fill="#9A6120"/>
</svg>
