<svg width="40" height="40" viewBox="0 0 40 40" fill="none" xmlns="http://www.w3.org/2000/svg">
<g clip-path="url(#clip0_76_545)">
<rect width="40" height="40" transform="matrix(-1 0 0 -1 40 40)" fill="#875938"/>
<rect x="20" y="10" width="2" height="2" transform="rotate(-180 20 10)" fill="#634835"/>
<rect x="20" y="10" width="2" height="2" transform="rotate(-180 20 10)" fill="#634835"/>
<rect x="20" y="10" width="2" height="2" transform="rotate(-180 20 10)" fill="#634835"/>
<rect x="14" y="38" width="2" height="2" transform="rotate(-180 14 38)" fill="#634835"/>
<rect x="14" y="38" width="2" height="2" transform="rotate(-180 14 38)" fill="#634835"/>
<rect x="14" y="38" width="2" height="2" transform="rotate(-180 14 38)" fill="#634835"/>
<rect x="8" y="14" width="2" height="2" transform="rotate(-180 8 14)" fill="#634835"/>
<rect x="8" y="14" width="2" height="2" transform="rotate(-180 8 14)" fill="#634835"/>
<rect x="8" y="14" width="2" height="2" transform="rotate(-180 8 14)" fill="#634835"/>
<rect x="5" y="28" width="2" height="2" transform="rotate(-180 5 28)" fill="#634835"/>
<rect x="5" y="28" width="2" height="2" transform="rotate(-180 5 28)" fill="#634835"/>
<rect x="5" y="28" width="2" height="2" transform="rotate(-180 5 28)" fill="#634835"/>
<rect x="36" y="32" width="2" height="2" transform="rotate(-180 36 32)" fill="#634835"/>
<rect x="36" y="32" width="2" height="2" transform="rotate(-180 36 32)" fill="#634835"/>
<rect x="36" y="32" width="2" height="2" transform="rotate(-180 36 32)" fill="#634835"/>
<rect x="25" y="23" width="2" height="2" transform="rotate(-180 25 23)" fill="#634835"/>
<rect x="25" y="23" width="2" height="2" transform="rotate(-180 25 23)" fill="#634835"/>
<rect x="25" y="23" width="2" height="2" transform="rotate(-180 25 23)" fill="#634835"/>
<rect x="32" y="2" width="2" height="2" transform="rotate(-180 32 2)" fill="#634835"/>
<rect x="32" y="2" width="2" height="2" transform="rotate(-180 32 2)" fill="#634835"/>
<rect x="32" y="2" width="2" height="2" transform="rotate(-180 32 2)" fill="#634835"/>
<rect x="11" y="19" width="2" height="2" transform="rotate(-180 11 19)" fill="#744828"/>
<rect x="14" y="18" width="2" height="2" transform="rotate(-180 14 18)" fill="#744828"/>
<rect x="15" y="18" width="2" height="1" transform="rotate(-180 15 18)" fill="#744828"/>
<rect x="12" y="18" width="2" height="2" transform="rotate(-180 12 18)" fill="#744828"/>
<rect x="34" y="7" width="2" height="2" transform="rotate(-180 34 7)" fill="#744828"/>
<rect x="37" y="6" width="2" height="2" transform="rotate(-180 37 6)" fill="#744828"/>
<rect x="38" y="6" width="2" height="1" transform="rotate(-180 38 6)" fill="#744828"/>
<rect x="39" y="8" width="2" height="2" transform="rotate(-180 39 8)" fill="#744828"/>
<rect x="35" y="6" width="2" height="2" transform="rotate(-180 35 6)" fill="#744828"/>
<rect x="11" y="27" width="1" height="1" transform="rotate(-180 11 27)" fill="#744828"/>
<rect x="12" y="27" width="1" height="1" transform="rotate(-180 12 27)" fill="#744828"/>
<rect x="11" y="28" width="1" height="1" transform="rotate(-180 11 28)" fill="#744828"/>
<rect x="10" y="28" width="1" height="1" transform="rotate(-180 10 28)" fill="#744828"/>
<rect x="10" y="29" width="1" height="1" transform="rotate(-180 10 29)" fill="#744828"/>
<rect x="13" y="26" width="1" height="1" transform="rotate(-180 13 26)" fill="#744828"/>
<rect x="15" y="27" width="2" height="1" transform="rotate(-180 15 27)" fill="#744828"/>
<rect x="16" y="28" width="1" height="1" transform="rotate(-180 16 28)" fill="#744828"/>
<rect x="30" y="17" width="1" height="1" transform="rotate(-180 30 17)" fill="#744828"/>
<rect x="33" y="19" width="1" height="1" transform="rotate(-180 33 19)" fill="#744828"/>
<rect x="32" y="18" width="2" height="1" transform="rotate(-180 32 18)" fill="#744828"/>
<rect width="1" height="1" transform="matrix(1 0 0 -1 16 2)" fill="#744828"/>
<rect width="1" height="1" transform="matrix(1 0 0 -1 13 4)" fill="#744828"/>
<rect width="2" height="1" transform="matrix(1 0 0 -1 14 3)" fill="#744828"/>
<rect x="4" y="36" width="1" height="1" transform="rotate(-180 4 36)" fill="#744828"/>
<rect x="7" y="38" width="1" height="1" transform="rotate(-180 7 38)" fill="#744828"/>
<rect x="6" y="37" width="2" height="1" transform="rotate(-180 6 37)" fill="#744828"/>
<rect width="1" height="1" transform="matrix(1 0 0 -1 5 6)" fill="#744828"/>
<rect width="1" height="1" transform="matrix(1 0 0 -1 4 6)" fill="#744828"/>
<rect width="1" height="1" transform="matrix(1 0 0 -1 5 7)" fill="#744828"/>
<rect width="1" height="1" transform="matrix(1 0 0 -1 6 7)" fill="#744828"/>
<rect width="1" height="1" transform="matrix(1 0 0 -1 6 8)" fill="#744828"/>
<rect width="1" height="1" transform="matrix(1 0 0 -1 3 5)" fill="#744828"/>
<rect width="2" height="1" transform="matrix(1 0 0 -1 1 6)" fill="#744828"/>
<rect width="1" height="1" transform="matrix(1 0 0 -1 0 7)" fill="#744828"/>
<rect width="2" height="2" transform="matrix(1 0 0 -1 26 33)" fill="#744828"/>
<rect width="2" height="2" transform="matrix(1 0 0 -1 23 32)" fill="#744828"/>
<rect width="2" height="1" transform="matrix(1 0 0 -1 22 32)" fill="#744828"/>
<rect width="2" height="2" transform="matrix(1 0 0 -1 21 34)" fill="#744828"/>
<rect width="2" height="2" transform="matrix(1 0 0 -1 25 32)" fill="#744828"/>
<rect x="27" y="11" width="1" height="1" transform="rotate(-180 27 11)" fill="#744828"/>
<rect x="28" y="11" width="1" height="1" transform="rotate(-180 28 11)" fill="#744828"/>
<rect x="27" y="12" width="1" height="1" transform="rotate(-180 27 12)" fill="#744828"/>
<rect x="26" y="12" width="1" height="1" transform="rotate(-180 26 12)" fill="#744828"/>
<rect x="26" y="13" width="1" height="1" transform="rotate(-180 26 13)" fill="#744828"/>
<rect x="29" y="10" width="1" height="1" transform="rotate(-180 29 10)" fill="#744828"/>
<rect x="31" y="11" width="2" height="1" transform="rotate(-180 31 11)" fill="#744828"/>
<rect x="32" y="12" width="1" height="1" transform="rotate(-180 32 12)" fill="#744828"/>
<rect x="34" y="36" width="1" height="1" transform="rotate(-180 34 36)" fill="#744828"/>
<rect x="35" y="36" width="1" height="1" transform="rotate(-180 35 36)" fill="#744828"/>
<rect x="34" y="37" width="1" height="1" transform="rotate(-180 34 37)" fill="#744828"/>
<rect x="33" y="37" width="1" height="1" transform="rotate(-180 33 37)" fill="#744828"/>
<rect x="33" y="38" width="1" height="1" transform="rotate(-180 33 38)" fill="#744828"/>
<rect x="36" y="35" width="1" height="1" transform="rotate(-180 36 35)" fill="#744828"/>
<rect x="38" y="36" width="2" height="1" transform="rotate(-180 38 36)" fill="#744828"/>
<rect x="39" y="37" width="1" height="1" transform="rotate(-180 39 37)" fill="#744828"/>
</g>
<defs>
<clipPath id="clip0_76_545">
<rect width="40" height="40" fill="white" transform="matrix(-1 0 0 -1 40 40)"/>
</clipPath>
</defs>
</svg>
