<svg width="20" height="20" viewBox="0 0 20 20" fill="none" xmlns="http://www.w3.org/2000/svg">
<g clip-path="url(#clip0_44_2)">
<rect width="20" height="20" transform="matrix(-1 0 0 -1 20 20)" fill="#84522E"/>
<rect x="16" y="7" width="1" height="2" transform="rotate(-180 16 7)" fill="#5A2F10"/>
<rect x="15" y="8" width="1" height="1" transform="rotate(-180 15 8)" fill="#5A2F10"/>
<rect x="10" y="8" width="1" height="2" transform="rotate(-180 10 8)" fill="#5A2F10"/>
<rect x="11" y="9" width="1" height="1" transform="rotate(-180 11 9)" fill="#5A2F10"/>
<rect x="6" y="12" width="1" height="2" transform="rotate(-180 6 12)" fill="#5A2F10"/>
<rect x="7" y="13" width="1" height="1" transform="rotate(-180 7 13)" fill="#5A2F10"/>
<rect x="11" y="20" width="1" height="2" transform="rotate(-180 11 20)" fill="#5A2F10"/>
<rect x="12" y="1" width="1" height="1" transform="rotate(-180 12 1)" fill="#5A2F10"/>
<rect x="7" y="3" width="1" height="2" transform="rotate(-180 7 3)" fill="#5A2F10"/>
<rect x="8" y="4" width="1" height="1" transform="rotate(-180 8 4)" fill="#5A2F10"/>
<rect x="15" y="15" width="1" height="2" transform="rotate(-180 15 15)" fill="#5A2F10"/>
<rect x="16" y="16" width="1" height="1" transform="rotate(-180 16 16)" fill="#5A2F10"/>
<rect x="2" y="18" width="1" height="2" transform="rotate(-180 2 18)" fill="#5A2F10"/>
<rect x="1" y="19" width="1" height="1" transform="rotate(-180 1 19)" fill="#5A2F10"/>
<rect x="1" y="19" width="1" height="1" transform="rotate(-180 1 19)" fill="#5A2F10"/>
<rect x="20" y="8" width="1" height="2" transform="rotate(-180 20 8)" fill="#5A2F10"/>
</g>
<defs>
<clipPath id="clip0_44_2">
<rect width="20" height="20" fill="white" transform="matrix(-1 0 0 -1 20 20)"/>
</clipPath>
</defs>
</svg>
