<svg width="18" height="14" viewBox="0 0 18 14" fill="none" xmlns="http://www.w3.org/2000/svg">
<rect x="3" y="3" width="14" height="8" fill="#EEEEEE"/>
<rect x="3" y="11" width="1" height="3" fill="#EEEEEE"/>
<rect x="16" y="11" width="1" height="3" fill="#EEEEEE"/>
<rect x="17" y="3" width="1" height="2" fill="#505050"/>
<rect x="6" width="1" height="2" fill="#F9FF8B"/>
<rect x="3" width="1" height="2" fill="#F9FF8B"/>
<rect y="1" width="6" height="4" fill="#505050"/>
<rect x="4" y="2" width="1" height="1" fill="black"/>
<rect x="3" y="13" width="1" height="1" fill="black"/>
<rect x="16" y="13" width="1" height="1" fill="black"/>
<rect y="3" width="1" height="1" fill="black"/>
<rect x="8" y="3" width="5" height="1" fill="#505050"/>
<rect x="9" y="4" width="3" height="1" fill="#505050"/>
<rect x="9" y="4" width="3" height="1" fill="#505050"/>
<rect x="6" y="10" width="5" height="1" fill="#505050"/>
<rect x="3" y="6" width="2" height="1" fill="#505050"/>
<rect x="3" y="7" width="2" height="1" fill="#505050"/>
<rect x="3" y="6" width="2" height="1" fill="#505050"/>
<rect x="3" y="8" width="1" height="1" fill="#505050"/>
<rect x="3" y="5" width="1" height="1" fill="#505050"/>
<rect x="7" y="9" width="3" height="1" fill="#505050"/>
<rect x="11" y="7" width="5" height="1" fill="#505050"/>
<rect x="12" y="8" width="3" height="1" fill="#505050"/>
<rect x="12" y="6" width="3" height="1" fill="#505050"/>
</svg>
