<svg width="40" height="40" viewBox="0 0 40 40" fill="none" xmlns="http://www.w3.org/2000/svg">
<g clip-path="url(#clip0_76_396)">
<rect width="40" height="40" transform="matrix(0 1 -1 0 40 0)" fill="#BAA87A"/>
<rect x="29" y="3" width="1" height="2" transform="rotate(90 29 3)" fill="#D0C29D"/>
<rect x="27" y="4" width="1" height="1" transform="rotate(90 27 4)" fill="#D0C29D"/>
<rect x="26" y="5" width="1" height="1" transform="rotate(90 26 5)" fill="#D0C29D"/>
<rect x="30" y="4" width="1" height="1" transform="rotate(90 30 4)" fill="#D0C29D"/>
<rect x="31" y="5" width="1" height="1" transform="rotate(90 31 5)" fill="#D0C29D"/>
<rect x="32" y="6" width="1" height="1" transform="rotate(90 32 6)" fill="#D0C29D"/>
<rect width="1" height="2" transform="matrix(0 1 1 0 9 11)" fill="#D0C29D"/>
<rect width="1" height="1" transform="matrix(0 1 1 0 11 12)" fill="#D0C29D"/>
<rect width="1" height="1" transform="matrix(0 1 1 0 12 13)" fill="#D0C29D"/>
<rect width="1" height="1" transform="matrix(0 1 1 0 8 12)" fill="#D0C29D"/>
<rect width="1" height="1" transform="matrix(0 1 1 0 7 13)" fill="#D0C29D"/>
<rect width="1" height="1" transform="matrix(0 1 1 0 6 14)" fill="#D0C29D"/>
<rect width="1" height="2" transform="matrix(0 1 1 0 29 36)" fill="#D0C29D"/>
<rect width="1" height="1" transform="matrix(0 1 1 0 31 37)" fill="#D0C29D"/>
<rect width="1" height="1" transform="matrix(0 1 1 0 32 38)" fill="#D0C29D"/>
<rect width="1" height="1" transform="matrix(0 1 1 0 28 37)" fill="#D0C29D"/>
<rect width="1" height="1" transform="matrix(0 1 1 0 27 38)" fill="#D0C29D"/>
<rect width="1" height="1" transform="matrix(0 1 1 0 26 39)" fill="#D0C29D"/>
<rect width="1" height="2" transform="matrix(0 1 1 0 27 17)" fill="#D0C29D"/>
<rect width="1" height="1" transform="matrix(0 1 1 0 29 18)" fill="#D0C29D"/>
<rect width="1" height="1" transform="matrix(0 1 1 0 30 19)" fill="#D0C29D"/>
<rect width="1" height="1" transform="matrix(0 1 1 0 26 18)" fill="#D0C29D"/>
<rect width="1" height="1" transform="matrix(0 1 1 0 25 19)" fill="#D0C29D"/>
<rect width="1" height="1" transform="matrix(0 1 1 0 24 20)" fill="#D0C29D"/>
<rect x="6" y="19" width="1" height="1" transform="rotate(90 6 19)" fill="#D0C29D"/>
<rect x="5" y="20" width="1" height="1" transform="rotate(90 5 20)" fill="#D0C29D"/>
<rect x="4" y="21" width="1" height="1" transform="rotate(90 4 21)" fill="#D0C29D"/>
<rect x="3" y="22" width="1" height="2" transform="rotate(90 3 22)" fill="#D0C29D"/>
<rect x="1" y="23" width="1" height="1" transform="rotate(90 1 23)" fill="#D0C29D"/>
<rect x="8" y="20" width="1" height="2" transform="rotate(90 8 20)" fill="#D0C29D"/>
<rect x="9" y="21" width="1" height="1" transform="rotate(90 9 21)" fill="#D0C29D"/>
<rect x="11" y="22" width="1" height="2" transform="rotate(90 11 22)" fill="#D0C29D"/>
<rect x="12" y="23" width="1" height="1" transform="rotate(90 12 23)" fill="#D0C29D"/>
<rect x="13" y="24" width="1" height="1" transform="rotate(90 13 24)" fill="#D0C29D"/>
<rect width="1" height="1" transform="matrix(0 1 1 0 34 26)" fill="#D0C29D"/>
<rect width="1" height="1" transform="matrix(0 1 1 0 35 27)" fill="#D0C29D"/>
<rect width="1" height="1" transform="matrix(0 1 1 0 36 28)" fill="#D0C29D"/>
<rect width="1" height="2" transform="matrix(0 1 1 0 37 29)" fill="#D0C29D"/>
<rect width="1" height="1" transform="matrix(0 1 1 0 39 30)" fill="#D0C29D"/>
<rect width="1" height="2" transform="matrix(0 1 1 0 32 27)" fill="#D0C29D"/>
<rect width="1" height="1" transform="matrix(0 1 1 0 31 28)" fill="#D0C29D"/>
<rect width="1" height="2" transform="matrix(0 1 1 0 29 29)" fill="#D0C29D"/>
<rect width="1" height="1" transform="matrix(0 1 1 0 28 30)" fill="#D0C29D"/>
<rect width="1" height="1" transform="matrix(0 1 1 0 27 31)" fill="#D0C29D"/>
<rect x="6" y="1" width="1" height="1" transform="rotate(90 6 1)" fill="#D0C29D"/>
<rect x="5" y="2" width="1" height="1" transform="rotate(90 5 2)" fill="#D0C29D"/>
<rect x="4" y="3" width="1" height="1" transform="rotate(90 4 3)" fill="#D0C29D"/>
<rect x="3" y="4" width="1" height="2" transform="rotate(90 3 4)" fill="#D0C29D"/>
<rect x="1" y="5" width="1" height="1" transform="rotate(90 1 5)" fill="#D0C29D"/>
<rect x="8" y="2" width="1" height="2" transform="rotate(90 8 2)" fill="#D0C29D"/>
<rect x="9" y="3" width="1" height="1" transform="rotate(90 9 3)" fill="#D0C29D"/>
<rect x="11" y="4" width="1" height="2" transform="rotate(90 11 4)" fill="#D0C29D"/>
<rect x="12" y="5" width="1" height="1" transform="rotate(90 12 5)" fill="#D0C29D"/>
<rect x="13" y="6" width="1" height="1" transform="rotate(90 13 6)" fill="#D0C29D"/>
<rect x="28" y="10" width="1" height="2" transform="rotate(90 28 10)" fill="#D0C29D"/>
<rect x="26" y="11" width="1" height="1" transform="rotate(90 26 11)" fill="#D0C29D"/>
<rect x="25" y="12" width="1" height="1" transform="rotate(90 25 12)" fill="#D0C29D"/>
<rect x="24" y="13" width="1" height="2" transform="rotate(90 24 13)" fill="#D0C29D"/>
<rect x="22" y="14" width="1" height="1" transform="rotate(90 22 14)" fill="#D0C29D"/>
<rect x="21" y="15" width="1" height="1" transform="rotate(90 21 15)" fill="#D0C29D"/>
<rect x="20" y="16" width="1" height="1" transform="rotate(90 20 16)" fill="#D0C29D"/>
<rect x="29" y="11" width="1" height="1" transform="rotate(90 29 11)" fill="#D0C29D"/>
<rect x="31" y="12" width="1" height="2" transform="rotate(90 31 12)" fill="#D0C29D"/>
<rect x="33" y="13" width="1" height="2" transform="rotate(90 33 13)" fill="#D0C29D"/>
<rect x="34" y="14" width="1" height="1" transform="rotate(90 34 14)" fill="#D0C29D"/>
<rect x="35" y="15" width="1" height="1" transform="rotate(90 35 15)" fill="#D0C29D"/>
<rect x="37" y="16" width="1" height="2" transform="rotate(90 37 16)" fill="#D0C29D"/>
<rect x="38" y="17" width="1" height="1" transform="rotate(90 38 17)" fill="#D0C29D"/>
<rect width="1" height="2" transform="matrix(0 1 1 0 15 29)" fill="#D0C29D"/>
<rect width="1" height="1" transform="matrix(0 1 1 0 17 30)" fill="#D0C29D"/>
<rect width="1" height="1" transform="matrix(0 1 1 0 18 31)" fill="#D0C29D"/>
<rect width="1" height="2" transform="matrix(0 1 1 0 19 32)" fill="#D0C29D"/>
<rect width="1" height="1" transform="matrix(0 1 1 0 21 33)" fill="#D0C29D"/>
<rect width="1" height="1" transform="matrix(0 1 1 0 22 34)" fill="#D0C29D"/>
<rect width="1" height="1" transform="matrix(0 1 1 0 23 35)" fill="#D0C29D"/>
<rect width="1" height="1" transform="matrix(0 1 1 0 14 30)" fill="#D0C29D"/>
<rect width="1" height="2" transform="matrix(0 1 1 0 12 31)" fill="#D0C29D"/>
<rect width="1" height="2" transform="matrix(0 1 1 0 10 32)" fill="#D0C29D"/>
<rect width="1" height="1" transform="matrix(0 1 1 0 9 33)" fill="#D0C29D"/>
<rect width="1" height="1" transform="matrix(0 1 1 0 8 34)" fill="#D0C29D"/>
<rect width="1" height="2" transform="matrix(0 1 1 0 6 35)" fill="#D0C29D"/>
<rect width="1" height="1" transform="matrix(0 1 1 0 5 36)" fill="#D0C29D"/>
</g>
<defs>
<clipPath id="clip0_76_396">
<rect width="40" height="40" fill="white" transform="matrix(0 1 -1 0 40 0)"/>
</clipPath>
</defs>
</svg>
