<svg width="10" height="10" viewBox="0 0 10 10" fill="none" xmlns="http://www.w3.org/2000/svg">
<rect x="1" y="2" width="8" height="7" fill="#D0B83E"/>
<rect y="1" width="10" height="1" fill="#938E64"/>
<rect y="1" width="1" height="8" fill="#938E64"/>
<rect x="9" y="1" width="1" height="8" fill="#938E64"/>
<rect y="9" width="10" height="1" fill="#938E64"/>
<rect x="1" width="3" height="1" fill="#C27C2B"/>
<rect x="1" y="2" width="3" height="2" fill="#58350D"/>
<rect x="1" y="2" width="3" height="2" fill="#814D11"/>
<rect x="2" y="3" width="1" height="1" fill="#EEA95B"/>
<rect x="2" y="4" width="1" height="1" fill="#A39758"/>
<rect x="2" y="4" width="1" height="4" fill="#A39758"/>
<rect x="3" y="7" width="6" height="1" fill="#A39758"/>
<rect x="7" y="4" width="2" height="1" fill="#7B7867"/>
<rect x="7" y="2" width="2" height="2" fill="#6D38D8"/>
<rect x="6" y="2" width="1" height="2" fill="#7B7867"/>
<rect y="1" width="5" height="1" fill="#C27C2B"/>
</svg>
