<svg width="40" height="40" viewBox="0 0 40 40" fill="none" xmlns="http://www.w3.org/2000/svg">
<rect width="40" height="40" fill="#44290A"/>
<rect x="9" y="17" width="2" height="6" fill="#835119"/>
<rect x="8" y="21" width="1" height="2" fill="#835119"/>
<rect x="8" y="15" width="5" height="2" fill="#653F12"/>
<rect x="6" y="15" width="1" height="1" fill="#6D8737"/>
<rect x="5" y="8" width="11" height="8" fill="#6D8737"/>
<rect x="16" y="9" width="1" height="5" fill="#6D8737"/>
<rect x="4" y="9" width="1" height="6" fill="#6D8737"/>
<rect x="3" y="11" width="1" height="4" fill="#6D8737"/>
<rect x="10" y="7" width="4" height="1" fill="#6D8737"/>
<rect x="5" y="16" width="3" height="1" fill="#374618"/>
<rect x="13" y="15" width="3" height="1" fill="#374618"/>
<rect x="3" y="15" width="2" height="1" fill="#374618"/>
<rect x="2" y="11" width="1" height="4" fill="#374618"/>
<rect x="3" y="9" width="1" height="2" fill="#374618"/>
<rect x="4" y="8" width="1" height="1" fill="#374618"/>
<rect x="5" y="7" width="5" height="1" fill="#374618"/>
<rect x="10" y="6" width="4" height="1" fill="#374618"/>
<rect x="14" y="7" width="2" height="1" fill="#374618"/>
<rect x="16" y="8" width="1" height="1" fill="#374618"/>
<rect x="11" y="17" width="2" height="6" fill="#653F12"/>
<rect x="13" y="21" width="1" height="2" fill="#653F12"/>
<rect x="17" y="9" width="1" height="5" fill="#374618"/>
<rect x="16" y="14" width="1" height="1" fill="#374618"/>
<rect x="31" y="21" width="2" height="6" fill="#835119"/>
<rect x="30" y="25" width="1" height="2" fill="#835119"/>
<rect x="30" y="19" width="5" height="2" fill="#653F12"/>
<rect x="28" y="19" width="1" height="1" fill="#6D8737"/>
<rect x="27" y="12" width="11" height="8" fill="#6D8737"/>
<rect x="38" y="13" width="1" height="5" fill="#6D8737"/>
<rect x="26" y="13" width="1" height="6" fill="#6D8737"/>
<rect x="25" y="15" width="1" height="4" fill="#6D8737"/>
<rect x="32" y="11" width="4" height="1" fill="#6D8737"/>
<rect x="27" y="20" width="3" height="1" fill="#374618"/>
<rect x="35" y="19" width="3" height="1" fill="#374618"/>
<rect x="25" y="19" width="2" height="1" fill="#374618"/>
<rect x="24" y="15" width="1" height="4" fill="#374618"/>
<rect x="25" y="13" width="1" height="2" fill="#374618"/>
<rect x="26" y="12" width="1" height="1" fill="#374618"/>
<rect x="27" y="11" width="5" height="1" fill="#374618"/>
<rect x="32" y="10" width="4" height="1" fill="#374618"/>
<rect x="36" y="11" width="2" height="1" fill="#374618"/>
<rect x="38" y="12" width="1" height="1" fill="#374618"/>
<rect x="33" y="21" width="2" height="6" fill="#653F12"/>
<rect x="35" y="25" width="1" height="2" fill="#653F12"/>
<rect x="39" y="13" width="1" height="5" fill="#374618"/>
<rect x="38" y="18" width="1" height="1" fill="#374618"/>
<rect x="16" y="38" width="2" height="2" fill="#835119"/>
<rect x="15" y="36" width="5" height="2" fill="#653F12"/>
<rect x="13" y="36" width="1" height="1" fill="#6D8737"/>
<rect x="12" y="29" width="11" height="8" fill="#6D8737"/>
<rect x="23" y="30" width="1" height="5" fill="#6D8737"/>
<rect x="11" y="30" width="1" height="6" fill="#6D8737"/>
<rect x="10" y="32" width="1" height="4" fill="#6D8737"/>
<rect x="17" y="28" width="4" height="1" fill="#6D8737"/>
<rect x="12" y="37" width="3" height="1" fill="#374618"/>
<rect x="20" y="36" width="3" height="1" fill="#374618"/>
<rect x="10" y="36" width="2" height="1" fill="#374618"/>
<rect x="9" y="32" width="1" height="4" fill="#374618"/>
<rect x="10" y="30" width="1" height="2" fill="#374618"/>
<rect x="11" y="29" width="1" height="1" fill="#374618"/>
<rect x="12" y="28" width="5" height="1" fill="#374618"/>
<rect x="17" y="27" width="4" height="1" fill="#374618"/>
<rect x="21" y="28" width="2" height="1" fill="#374618"/>
<rect x="23" y="29" width="1" height="1" fill="#374618"/>
<rect x="18" y="38" width="2" height="2" fill="#653F12"/>
<rect x="24" y="30" width="1" height="5" fill="#374618"/>
<rect x="23" y="35" width="1" height="1" fill="#374618"/>
<rect x="15" y="2" width="1" height="2" fill="#835119"/>
<rect x="16" width="2" height="4" fill="#835119"/>
<rect x="18" width="2" height="4" fill="#653F12"/>
<rect x="20" y="2" width="1" height="2" fill="#653F12"/>
</svg>
