<svg width="20" height="20" viewBox="0 0 20 20" fill="none" xmlns="http://www.w3.org/2000/svg">
<g clip-path="url(#clip0_73_59)">
<rect width="20" height="20" fill="#325231"/>
<rect x="4" y="13" width="1" height="2" fill="#5C8552"/>
<rect x="3" y="17" width="1" height="2" fill="#5C8552"/>
<rect x="4" y="16" width="1" height="2" fill="#5C8552"/>
<rect x="3" y="11" width="1" height="2" fill="#5C8552"/>
<rect x="5" y="12" width="1" height="1" fill="#5C8552"/>
<rect x="13" y="1" width="1" height="1" fill="#5C8552"/>
<rect x="10" y="13" width="1" height="1" fill="#5C8552"/>
<rect x="11" y="12" width="1" height="1" fill="#5C8552"/>
<rect x="8" y="9" width="1" height="2" fill="#5C8552"/>
<rect x="10" y="9" width="1" height="2" fill="#5C8552"/>
<rect x="12" y="11" width="1" height="1" fill="#5C8552"/>
<rect x="9" y="11" width="1" height="1" fill="#5C8552"/>
<rect x="14" y="8" width="1" height="2" fill="#5C8552"/>
<rect x="13" y="7" width="1" height="1" fill="#5C8552"/>
<rect x="15" y="7" width="1" height="2" fill="#5C8552"/>
<rect x="16" y="6" width="1" height="1" fill="#5C8552"/>
<rect x="7" y="6" width="1" height="2" fill="#5C8552"/>
<rect x="8" y="4" width="1" height="2" fill="#5C8552"/>
<rect x="8" y="19" width="1" height="1" fill="#5C8552"/>
<rect x="13" y="17" width="1" height="2" fill="#5C8552"/>
<rect x="12" y="16" width="1" height="1" fill="#5C8552"/>
<rect x="5" y="5" width="1" height="2" fill="#5C8552"/>
<rect x="6" y="7" width="1" height="2" fill="#5C8552"/>
<rect x="1" width="1" height="2" fill="#5C8552"/>
<rect x="2" y="2" width="1" height="2" fill="#5C8552"/>
<rect x="4" y="4" width="1" height="1" fill="#5C8552"/>
<rect width="1" height="2" transform="matrix(-1 0 0 1 17 15)" fill="#5C8552"/>
<rect width="1" height="2" transform="matrix(-1 0 0 1 16 13)" fill="#5C8552"/>
<rect width="1" height="2" transform="matrix(-1 0 0 1 19 14)" fill="#5C8552"/>
<rect width="1" height="2" transform="matrix(-1 0 0 1 18 16)" fill="#5C8552"/>
<rect width="1" height="1" transform="matrix(-1 0 0 1 20 13)" fill="#5C8552"/>
<rect x="18" y="2" width="1" height="2" fill="#5C8552"/>
<rect x="19" y="1" width="1" height="1" fill="#5C8552"/>
<rect x="19" y="1" width="1" height="1" fill="#5C8552"/>
<rect x="12" y="2" width="1" height="3" fill="#5C8552"/>
<rect x="11" y="1" width="1" height="1" fill="#5C8552"/>
<rect x="10" width="1" height="1" fill="#5C8552"/>
<rect y="12" width="1" height="2" fill="#5C8552"/>
<rect y="19" width="1" height="1" fill="#5C8552"/>
</g>
<defs>
<clipPath id="clip0_73_59">
<rect width="20" height="20" fill="white"/>
</clipPath>
</defs>
</svg>
