<svg width="40" height="40" viewBox="0 0 40 40" fill="none" xmlns="http://www.w3.org/2000/svg">
<rect width="40" height="40" fill="#3E563D"/>
<rect x="7" y="17" width="2" height="2" fill="#5A8F4D"/>
<rect x="6" y="16" width="1" height="2" fill="#5A8F4D"/>
<rect x="8" y="15" width="1" height="2" fill="#5A8F4D"/>
<rect x="6" y="12" width="2" height="3" fill="#5A8F4D"/>
<rect x="5" y="14" width="1" height="2" fill="#5A8F4D"/>
<rect x="4" y="13" width="1" height="1" fill="#5A8F4D"/>
<rect x="9" y="13" width="1" height="1" fill="#5A8F4D"/>
<rect x="6" y="11" width="1" height="1" fill="#5A8F4D"/>
<rect x="9" y="16" width="1" height="3" fill="#5A8F4D"/>
<rect x="10" y="14" width="2" height="3" fill="#5A8F4D"/>
<rect x="11" y="13" width="1" height="4" fill="#3C7235"/>
<rect x="12" y="12" width="1" height="1" fill="#3C7235"/>
<rect x="5" y="12" width="1" height="1" fill="#3C7235"/>
<rect x="6" y="13" width="1" height="3" fill="#3C7235"/>
<rect x="7" y="15" width="1" height="4" fill="#3C7235"/>
<rect x="8" y="11" width="1" height="4" fill="#3C7235"/>
<rect x="10" y="17" width="1" height="1" fill="#3C7235"/>
<rect x="9" y="15" width="1" height="4" fill="#3C7235"/>
<rect x="37" y="37" width="2" height="2" fill="#5A8F4D"/>
<rect x="36" y="36" width="1" height="2" fill="#5A8F4D"/>
<rect x="38" y="35" width="1" height="2" fill="#5A8F4D"/>
<rect x="36" y="32" width="2" height="3" fill="#5A8F4D"/>
<rect x="35" y="34" width="1" height="2" fill="#5A8F4D"/>
<rect x="34" y="33" width="1" height="1" fill="#5A8F4D"/>
<rect x="39" y="33" width="1" height="1" fill="#5A8F4D"/>
<rect x="36" y="31" width="1" height="1" fill="#5A8F4D"/>
<rect x="39" y="36" width="1" height="3" fill="#5A8F4D"/>
<rect x="35" y="32" width="1" height="1" fill="#3C7235"/>
<rect x="36" y="33" width="1" height="3" fill="#3C7235"/>
<rect x="37" y="35" width="1" height="4" fill="#3C7235"/>
<rect x="38" y="31" width="1" height="4" fill="#3C7235"/>
<rect x="39" y="35" width="1" height="4" fill="#3C7235"/>
<rect y="34" width="2" height="3" fill="#5A8F4D"/>
<rect x="1" y="33" width="1" height="4" fill="#3C7235"/>
<rect x="2" y="32" width="1" height="1" fill="#3C7235"/>
<rect y="37" width="1" height="1" fill="#3C7235"/>
<rect width="2" height="2" transform="matrix(-1 0 0 1 20 33)" fill="#5A8F4D"/>
<rect width="1" height="2" transform="matrix(-1 0 0 1 21 32)" fill="#5A8F4D"/>
<rect width="1" height="2" transform="matrix(-1 0 0 1 17 32)" fill="#5A8F4D"/>
<rect width="1" height="2" transform="matrix(-1 0 0 1 19 31)" fill="#5A8F4D"/>
<rect width="2" height="3" transform="matrix(-1 0 0 1 19 29)" fill="#5A8F4D"/>
<rect width="1" height="2" transform="matrix(-1 0 0 1 22 30)" fill="#5A8F4D"/>
<rect width="1" height="1" transform="matrix(-1 0 0 1 23 29)" fill="#5A8F4D"/>
<rect width="1" height="1" transform="matrix(-1 0 0 1 15 29)" fill="#5A8F4D"/>
<rect width="1" height="1" transform="matrix(-1 0 0 1 18 29)" fill="#5A8F4D"/>
<rect width="1" height="2" transform="matrix(-1 0 0 1 20 28)" fill="#5A8F4D"/>
<rect width="1" height="3" transform="matrix(-1 0 0 1 18 32)" fill="#5A8F4D"/>
<rect width="2" height="3" transform="matrix(-1 0 0 1 17 30)" fill="#5A8F4D"/>
<rect width="1" height="4" transform="matrix(-1 0 0 1 17 27)" fill="#3C7235"/>
<rect width="1" height="1" transform="matrix(-1 0 0 1 20 26)" fill="#3C7235"/>
<rect width="1" height="1" transform="matrix(-1 0 0 1 22 28)" fill="#3C7235"/>
<rect width="1" height="3" transform="matrix(-1 0 0 1 21 29)" fill="#3C7235"/>
<rect width="1" height="4" transform="matrix(-1 0 0 1 20 31)" fill="#3C7235"/>
<rect width="1" height="4" transform="matrix(-1 0 0 1 19 27)" fill="#3C7235"/>
<rect width="1" height="2" transform="matrix(-1 0 0 1 19 33)" fill="#3C7235"/>
<rect width="1" height="4" transform="matrix(-1 0 0 1 18 31)" fill="#3C7235"/>
<rect width="2" height="2" transform="matrix(-1 0 0 1 31 22)" fill="#5A8F4D"/>
<rect width="1" height="2" transform="matrix(-1 0 0 1 32 21)" fill="#5A8F4D"/>
<rect width="1" height="2" transform="matrix(-1 0 0 1 28 21)" fill="#5A8F4D"/>
<rect width="1" height="2" transform="matrix(-1 0 0 1 30 20)" fill="#5A8F4D"/>
<rect width="2" height="3" transform="matrix(-1 0 0 1 30 18)" fill="#5A8F4D"/>
<rect width="1" height="1" transform="matrix(-1 0 0 1 33 20)" fill="#5A8F4D"/>
<rect width="1" height="1" transform="matrix(-1 0 0 1 32 16)" fill="#5A8F4D"/>
<rect width="1" height="1" transform="matrix(-1 0 0 1 29 18)" fill="#5A8F4D"/>
<rect width="1" height="2" transform="matrix(-1 0 0 1 31 17)" fill="#5A8F4D"/>
<rect width="1" height="3" transform="matrix(-1 0 0 1 29 21)" fill="#5A8F4D"/>
<rect width="2" height="3" transform="matrix(-1 0 0 1 30 21)" fill="#5A8F4D"/>
<rect width="1" height="1" transform="matrix(-1 0 0 1 26 19)" fill="#3C7235"/>
<rect width="1" height="1" transform="matrix(-1 0 0 1 29 17)" fill="#3C7235"/>
<rect width="1" height="1" transform="matrix(-1 0 0 1 28 16)" fill="#3C7235"/>
<rect width="1" height="3" transform="matrix(-1 0 0 1 32 18)" fill="#3C7235"/>
<rect width="1" height="4" transform="matrix(-1 0 0 1 31 20)" fill="#3C7235"/>
<rect width="1" height="2" transform="matrix(-1 0 0 1 30 18)" fill="#3C7235"/>
<rect width="1" height="2" transform="matrix(-1 0 0 1 27 20)" fill="#3C7235"/>
<rect width="1" height="4" transform="matrix(-1 0 0 1 29 20)" fill="#3C7235"/>
<rect x="22" y="7" width="2" height="2" fill="#5A8F4D"/>
<rect x="21" y="6" width="1" height="2" fill="#5A8F4D"/>
<rect x="25" y="6" width="1" height="2" fill="#5A8F4D"/>
<rect x="23" y="5" width="1" height="2" fill="#5A8F4D"/>
<rect x="23" y="3" width="2" height="3" fill="#5A8F4D"/>
<rect x="20" y="5" width="1" height="1" fill="#5A8F4D"/>
<rect x="21" y="1" width="1" height="1" fill="#5A8F4D"/>
<rect x="24" y="3" width="1" height="1" fill="#5A8F4D"/>
<rect x="22" y="2" width="1" height="2" fill="#5A8F4D"/>
<rect x="24" y="6" width="1" height="3" fill="#5A8F4D"/>
<rect x="23" y="6" width="2" height="3" fill="#5A8F4D"/>
<rect x="27" y="4" width="1" height="1" fill="#3C7235"/>
<rect x="24" y="2" width="1" height="1" fill="#3C7235"/>
<rect x="25" y="1" width="1" height="1" fill="#3C7235"/>
<rect x="21" y="3" width="1" height="3" fill="#3C7235"/>
<rect x="22" y="5" width="1" height="4" fill="#3C7235"/>
<rect x="23" y="3" width="1" height="2" fill="#3C7235"/>
<rect x="26" y="5" width="1" height="2" fill="#3C7235"/>
<rect x="24" y="5" width="1" height="4" fill="#3C7235"/>
</svg>
