<svg width="20" height="20" viewBox="0 0 20 20" fill="none" xmlns="http://www.w3.org/2000/svg">
<g clip-path="url(#clip0_28_854)">
<rect width="20" height="20" fill="#3F623E"/>
<rect x="4" y="13" width="1" height="2" fill="#85A34F"/>
<rect x="5" y="12" width="1" height="1" fill="#85A34F"/>
<rect x="10" y="12" width="1" height="2" fill="#85A34F"/>
<rect x="9" y="11" width="1" height="1" fill="#85A34F"/>
<rect x="14" y="8" width="1" height="2" fill="#85A34F"/>
<rect x="13" y="7" width="1" height="1" fill="#85A34F"/>
<rect x="9" width="1" height="2" fill="#85A34F"/>
<rect x="8" y="19" width="1" height="1" fill="#85A34F"/>
<rect x="13" y="17" width="1" height="2" fill="#85A34F"/>
<rect x="12" y="16" width="1" height="1" fill="#85A34F"/>
<rect x="5" y="5" width="1" height="2" fill="#85A34F"/>
<rect x="4" y="4" width="1" height="1" fill="#85A34F"/>
<rect x="18" y="2" width="1" height="2" fill="#85A34F"/>
<rect x="19" y="1" width="1" height="1" fill="#85A34F"/>
<rect x="19" y="1" width="1" height="1" fill="#85A34F"/>
<rect y="12" width="1" height="2" fill="#85A34F"/>
</g>
<defs>
<clipPath id="clip0_28_854">
<rect width="20" height="20" fill="white"/>
</clipPath>
</defs>
</svg>
