<svg width="28" height="17" viewBox="0 0 28 17" fill="none" xmlns="http://www.w3.org/2000/svg">
<rect width="16" height="8" transform="matrix(-1 0 0 1 20 5)" fill="#744917"/>
<rect width="2" height="3" transform="matrix(-1 0 0 1 20 13)" fill="#744917"/>
<rect width="2" height="3" transform="matrix(-1 0 0 1 6 13)" fill="#744917"/>
<rect width="1" height="4" transform="matrix(-1 0 0 1 3 6)" fill="#505050"/>
<rect width="1" height="4" transform="matrix(-1 0 0 1 4 5)" fill="#505050"/>
<rect width="3" height="3" transform="matrix(-1 0 0 1 22 3)" fill="#744917"/>
<rect width="3" height="3" transform="matrix(-1 0 0 1 21 4)" fill="#744917"/>
<rect width="2" height="1" transform="matrix(-1 0 0 1 20 16)" fill="black"/>
<rect width="2" height="1" transform="matrix(-1 0 0 1 6 16)" fill="black"/>
<rect width="1" height="2" transform="matrix(-1 0 0 1 22 0)" fill="#505050"/>
<rect width="1" height="2" transform="matrix(-1 0 0 1 21 0)" fill="#505050"/>
<rect width="7" height="4" transform="matrix(-1 0 0 1 28 1)" fill="#744917"/>
<rect width="1" height="1" transform="matrix(-1 0 0 1 26 2)" fill="black"/>
<rect width="1" height="2" transform="matrix(-1 0 0 1 23 0)" fill="#744917"/>
<rect width="1" height="1" transform="matrix(-1 0 0 1 24 1)" fill="#505050"/>
<rect width="1" height="1" transform="matrix(-1 0 0 1 24 0)" fill="#505050"/>
<rect width="1" height="3" transform="matrix(-1 0 0 1 21 1)" fill="#505050"/>
<rect width="1" height="3" transform="matrix(-1 0 0 1 20 1)" fill="#505050"/>
<rect width="1" height="3" transform="matrix(-1 0 0 1 19 2)" fill="#505050"/>
<rect width="1" height="4" transform="matrix(-1 0 0 1 2 7)" fill="#505050"/>
<rect width="1" height="4" transform="matrix(-1 0 0 1 1 9)" fill="#505050"/>
</svg>
