<svg width="11" height="6" viewBox="0 0 11 6" fill="none" xmlns="http://www.w3.org/2000/svg">
<rect x="1" y="1" width="9" height="5" fill="#9B9B9B"/>
<rect x="1" y="1" width="9" height="5" fill="#696969"/>
<rect x="9" y="2" width="1" height="4" fill="#878787"/>
<rect x="9" y="2" width="1" height="4" fill="#878787"/>
<rect x="9" y="2" width="1" height="4" fill="#878787"/>
<rect x="1" y="5" width="9" height="1" fill="#878787"/>
<rect x="1" y="5" width="9" height="1" fill="#878787"/>
<rect x="1" y="5" width="9" height="1" fill="#878787"/>
<rect x="1" y="1" width="9" height="1" fill="#878787"/>
<rect x="1" y="1" width="9" height="1" fill="#878787"/>
<rect x="1" y="1" width="9" height="1" fill="#878787"/>
<rect x="1" y="1" width="1" height="4" fill="#878787"/>
<rect x="1" y="1" width="1" height="4" fill="#878787"/>
<rect x="1" y="1" width="1" height="4" fill="#878787"/>
<rect x="4" y="2" width="1" height="3" fill="#9B9B9B"/>
<rect x="2" y="2" width="1" height="3" fill="#9B9B9B"/>
<rect x="8" y="2" width="1" height="3" fill="#9B9B9B"/>
<rect x="6" y="2" width="1" height="3" fill="#9B9B9B"/>
<rect width="2" height="2" fill="#9B9B9B"/>
<rect x="9" width="2" height="2" fill="#9B9B9B"/>
</svg>
