<svg width="6" height="16" viewBox="0 0 6 16" fill="none" xmlns="http://www.w3.org/2000/svg">
<rect y="1" width="6" height="4" fill="#737373"/>
<rect x="1" width="4" height="6" fill="#737373"/>
<rect x="2" y="6" width="2" height="10" fill="#805233"/>
<rect x="1" width="4" height="1" fill="#A2A2A2"/>
<rect x="1" width="4" height="1" fill="#A2A2A2"/>
<rect x="1" width="4" height="1" fill="#A2A2A2"/>
<rect x="1" y="1" width="1" height="1" fill="#838383"/>
<rect y="1" width="1" height="4" fill="#A2A2A2"/>
<rect y="1" width="1" height="4" fill="#A2A2A2"/>
<rect y="1" width="1" height="4" fill="#A2A2A2"/>
<rect x="1" width="1" height="1" fill="#BABABA"/>
<rect y="1" width="1" height="1" fill="#BABABA"/>
<rect x="5" y="1" width="1" height="4" fill="#A2A2A2"/>
<rect x="5" y="1" width="1" height="4" fill="#A2A2A2"/>
<rect x="5" y="1" width="1" height="4" fill="#A2A2A2"/>
<rect x="1" y="5" width="4" height="1" fill="#A2A2A2"/>
<rect x="1" y="5" width="4" height="1" fill="#A2A2A2"/>
<rect x="1" y="5" width="4" height="1" fill="#A2A2A2"/>
</svg>
