<svg width="19" height="12" viewBox="0 0 19 12" fill="none" xmlns="http://www.w3.org/2000/svg">
<rect x="2" y="8" width="15" height="1" fill="#6B6B6B"/>
<rect x="6" y="4" width="8" height="1" fill="#6B6B6B"/>
<rect x="6" y="3" width="7" height="1" fill="#6B6B6B"/>
<rect x="7" y="2" width="5" height="1" fill="#6B6B6B"/>
<rect x="8" y="1" width="3" height="1" fill="#F6F6F6"/>
<rect x="7" y="2" width="2" height="1" fill="#F6F6F6"/>
<rect x="6" y="3" width="2" height="1" fill="#F6F6F6"/>
<rect x="9" y="2" width="2" height="1" fill="#F6F6F6"/>
<rect x="9" y="2" width="2" height="1" fill="#F6F6F6"/>
<rect x="8" y="3" width="1" height="1" fill="#F6F6F6"/>
<rect x="11" y="2" width="1" height="1" fill="#959595"/>
<rect x="10" y="3" width="3" height="1" fill="#959595"/>
<rect x="11" y="4" width="3" height="1" fill="#959595"/>
<rect x="11" y="2" width="1" height="1" fill="#959595"/>
<rect x="11" y="2" width="1" height="1" fill="#959595"/>
<rect x="12" y="5" width="1" height="1" fill="#959595"/>
<rect x="9" width="1" height="1" fill="#F6F6F6"/>
<rect x="7" y="2" width="1" height="1" fill="#D8D8D8"/>
<rect x="7" y="2" width="1" height="1" fill="#D8D8D8"/>
<rect x="7" y="2" width="1" height="1" fill="#D8D8D8"/>
<rect x="7" y="2" width="1" height="1" fill="#D8D8D8"/>
<rect x="7" y="2" width="1" height="1" fill="#D8D8D8"/>
<rect x="7" y="2" width="1" height="1" fill="#D8D8D8"/>
<rect x="8" y="1" width="1" height="1" fill="#D8D8D8"/>
<rect x="8" y="1" width="1" height="1" fill="#D8D8D8"/>
<rect x="8" y="1" width="1" height="1" fill="#D8D8D8"/>
<rect x="6" y="3" width="1" height="1" fill="#D8D8D8"/>
<rect x="6" y="3" width="1" height="1" fill="#D8D8D8"/>
<rect x="6" y="3" width="1" height="1" fill="#D8D8D8"/>
<rect x="7" y="3" width="1" height="1" fill="#D8D8D8"/>
<rect x="7" y="3" width="1" height="1" fill="#D8D8D8"/>
<rect x="7" y="3" width="1" height="1" fill="#D8D8D8"/>
<rect x="10" y="3" width="1" height="1" fill="#F6F6F6"/>
<rect x="11" y="2" width="1" height="1" fill="#F6F6F6"/>
<rect x="4" y="6" width="11" height="1" fill="#6B6B6B"/>
<rect x="5" y="5" width="9" height="1" fill="#6B6B6B"/>
<rect x="2" y="9" width="15" height="1" fill="#6B6B6B"/>
<rect x="1" y="10" width="17" height="1" fill="#6B6B6B"/>
<rect y="11" width="19" height="1" fill="#6B6B6B"/>
<rect x="3" y="7" width="13" height="1" fill="#6B6B6B"/>
<rect x="11" y="4" width="3" height="1" fill="#959595"/>
<rect x="12" y="5" width="2" height="1" fill="#959595"/>
<rect x="13" y="6" width="2" height="1" fill="#959595"/>
<rect x="15" y="7" width="1" height="1" fill="#959595"/>
<rect x="11" y="5" width="1" height="1" fill="#7C7C7C"/>
<rect x="11" y="5" width="1" height="1" fill="#7C7C7C"/>
<rect x="11" y="5" width="1" height="1" fill="#7C7C7C"/>
<rect x="11" y="5" width="1" height="1" fill="#7C7C7C"/>
<rect x="16" y="9" width="1" height="1" fill="#7C7C7C"/>
<rect x="16" y="9" width="1" height="1" fill="#7C7C7C"/>
<rect x="16" y="9" width="1" height="1" fill="#7C7C7C"/>
<rect x="16" y="9" width="1" height="1" fill="#7C7C7C"/>
<rect x="17" y="10" width="1" height="1" fill="#7C7C7C"/>
<rect x="17" y="10" width="1" height="1" fill="#7C7C7C"/>
<rect x="17" y="10" width="1" height="1" fill="#7C7C7C"/>
<rect x="17" y="10" width="1" height="1" fill="#7C7C7C"/>
<rect x="9" y="3" width="1" height="1" fill="#7C7C7C"/>
<rect x="9" y="3" width="1" height="1" fill="#7C7C7C"/>
<rect x="9" y="3" width="1" height="1" fill="#7C7C7C"/>
<rect x="9" y="3" width="1" height="1" fill="#7C7C7C"/>
<rect x="12" y="6" width="1" height="1" fill="#7C7C7C"/>
<rect x="12" y="6" width="1" height="1" fill="#7C7C7C"/>
<rect x="12" y="6" width="1" height="1" fill="#7C7C7C"/>
<rect x="12" y="6" width="1" height="1" fill="#7C7C7C"/>
<rect x="14" y="7" width="1" height="1" fill="#7C7C7C"/>
<rect x="14" y="7" width="1" height="1" fill="#7C7C7C"/>
<rect x="14" y="7" width="1" height="1" fill="#7C7C7C"/>
<rect x="14" y="7" width="1" height="1" fill="#7C7C7C"/>
<rect x="11" y="5" width="1" height="1" fill="#7C7C7C"/>
<rect x="11" y="5" width="1" height="1" fill="#7C7C7C"/>
<rect x="11" y="5" width="1" height="1" fill="#7C7C7C"/>
<rect x="11" y="5" width="1" height="1" fill="#7C7C7C"/>
<rect x="9" y="4" width="2" height="1" fill="#7C7C7C"/>
<rect x="9" y="4" width="2" height="1" fill="#7C7C7C"/>
<rect x="9" y="4" width="2" height="1" fill="#7C7C7C"/>
<rect x="9" y="4" width="2" height="1" fill="#7C7C7C"/>
<rect x="16" y="8" width="1" height="1" fill="#959595"/>
</svg>
