<svg width="10" height="10" viewBox="0 0 10 10" fill="none" xmlns="http://www.w3.org/2000/svg">
<rect x="1" y="2" width="8" height="7" fill="#969489"/>
<rect y="1" width="10" height="1" fill="#4A4A4A"/>
<rect y="1" width="1" height="8" fill="#4A4A4A"/>
<rect x="9" y="1" width="1" height="8" fill="#4A4A4A"/>
<rect y="9" width="10" height="1" fill="#4A4A4A"/>
<rect x="1" y="6" width="3" height="1" fill="#C27C2B"/>
<rect x="1" y="8" width="3" height="2" fill="#58350D"/>
<rect x="1" y="8" width="3" height="2" fill="#814D11"/>
<rect x="2" y="9" width="1" height="1" fill="#EEA95B"/>
<rect x="6" y="1" width="3" height="1" fill="#7B7867"/>
<rect x="6" y="5" width="3" height="1" fill="#7B7867"/>
<rect x="6" y="2" width="3" height="3" fill="#393835"/>
<rect x="5" y="2" width="1" height="3" fill="#7B7867"/>
<rect y="7" width="5" height="1" fill="#C27C2B"/>
<rect x="7" y="2" width="1" height="1" fill="#EEA95B"/>
<rect x="9" y="2" width="1" height="3" fill="#7B7867"/>
</svg>
