<svg width="4" height="4" viewBox="0 0 4 4" fill="none" xmlns="http://www.w3.org/2000/svg">
<rect y="1" width="4" height="2" fill="#6B6B6B"/>
<rect x="1" width="2" height="1" fill="#6B6B6B"/>
<rect x="1" y="3" width="2" height="1" fill="#6B6B6B"/>
<rect x="2" y="1" width="1" height="1" fill="#7C7C7C"/>
<rect x="2" y="1" width="1" height="1" fill="#7C7C7C"/>
<rect x="2" y="1" width="1" height="1" fill="#7C7C7C"/>
<rect x="2" y="1" width="1" height="1" fill="#7C7C7C"/>
<rect y="2" width="1" height="1" fill="#7C7C7C"/>
<rect y="2" width="1" height="1" fill="#7C7C7C"/>
<rect y="2" width="1" height="1" fill="#7C7C7C"/>
<rect y="2" width="1" height="1" fill="#7C7C7C"/>
<rect x="2" y="3" width="1" height="1" fill="#7C7C7C"/>
<rect x="2" y="3" width="1" height="1" fill="#7C7C7C"/>
<rect x="2" y="3" width="1" height="1" fill="#7C7C7C"/>
<rect x="2" y="3" width="1" height="1" fill="#7C7C7C"/>
<rect x="1" width="1" height="1" fill="#959595"/>
<rect x="3" y="2" width="1" height="1" fill="#959595"/>
</svg>
