<svg width="20" height="20" viewBox="0 0 20 20" fill="none" xmlns="http://www.w3.org/2000/svg">
<g clip-path="url(#clip0_29_956)">
<rect width="20" height="20" transform="matrix(0 -1 1 0 0 20)" fill="#50483F"/>
<rect x="13" y="16" width="1" height="2" transform="rotate(-90 13 16)" fill="#443B31"/>
<rect x="12" y="15" width="1" height="1" transform="rotate(-90 12 15)" fill="#443B31"/>
<rect x="12" y="10" width="1" height="2" transform="rotate(-90 12 10)" fill="#443B31"/>
<rect x="11" y="11" width="1" height="1" transform="rotate(-90 11 11)" fill="#443B31"/>
<rect x="8" y="6" width="1" height="2" transform="rotate(-90 8 6)" fill="#443B31"/>
<rect x="7" y="7" width="1" height="1" transform="rotate(-90 7 7)" fill="#443B31"/>
<rect y="11" width="1" height="2" transform="rotate(-90 0 11)" fill="#443B31"/>
<rect x="19" y="12" width="1" height="1" transform="rotate(-90 19 12)" fill="#443B31"/>
<rect x="17" y="7" width="1" height="2" transform="rotate(-90 17 7)" fill="#443B31"/>
<rect x="16" y="8" width="1" height="1" transform="rotate(-90 16 8)" fill="#443B31"/>
<rect x="5" y="15" width="1" height="2" transform="rotate(-90 5 15)" fill="#443B31"/>
<rect x="4" y="16" width="1" height="1" transform="rotate(-90 4 16)" fill="#443B31"/>
<rect x="2" y="2" width="1" height="2" transform="rotate(-90 2 2)" fill="#443B31"/>
<rect x="1" y="1" width="1" height="1" transform="rotate(-90 1 1)" fill="#443B31"/>
<rect x="1" y="1" width="1" height="1" transform="rotate(-90 1 1)" fill="#443B31"/>
<rect x="12" y="20" width="1" height="2" transform="rotate(-90 12 20)" fill="#443B31"/>
</g>
<defs>
<clipPath id="clip0_29_956">
<rect width="20" height="20" fill="white" transform="matrix(0 -1 1 0 0 20)"/>
</clipPath>
</defs>
</svg>
