<svg width="40" height="40" viewBox="0 0 40 40" fill="none" xmlns="http://www.w3.org/2000/svg">
<g clip-path="url(#clip0_76_285)">
<rect width="40" height="40" transform="matrix(0 -1 1 0 0 40)" fill="#4B443C"/>
<rect width="1" height="3" transform="matrix(0 1 1 0 13 33)" fill="#3A332C"/>
<rect width="1" height="5" transform="matrix(0 1 1 0 12 34)" fill="#3A332C"/>
<rect width="1" height="3" transform="matrix(0 1 1 0 13 35)" fill="#3A332C"/>
<rect width="1" height="1" transform="matrix(0 1 1 0 13 35)" fill="#5B564F"/>
<rect width="1" height="1" transform="matrix(0 1 1 0 15 34)" fill="#5B564F"/>
<rect x="29" y="8" width="1" height="3" transform="rotate(90 29 8)" fill="#3A332C"/>
<rect x="30" y="9" width="1" height="5" transform="rotate(90 30 9)" fill="#3A332C"/>
<rect x="29" y="10" width="1" height="3" transform="rotate(90 29 10)" fill="#3A332C"/>
<rect x="29" y="10" width="1" height="1" transform="rotate(90 29 10)" fill="#5B564F"/>
<rect x="27" y="9" width="1" height="1" transform="rotate(90 27 9)" fill="#5B564F"/>
<rect width="1" height="3" transform="matrix(0 -1 -1 0 40 23)" fill="#3A332C"/>
<rect width="1" height="4" transform="matrix(0 -1 -1 0 40 22)" fill="#3A332C"/>
<rect width="1" height="4" transform="matrix(0 -1 -1 0 40 21)" fill="#3A332C"/>
<rect width="1" height="1" transform="matrix(0 -1 -1 0 1 21)" fill="#3A332C"/>
<rect width="1" height="3" transform="matrix(0 -1 -1 0 40 20)" fill="#3A332C"/>
<rect width="1" height="1" transform="matrix(0 -1 -1 0 40 20)" fill="#5B564F"/>
<rect width="1" height="1" transform="matrix(0 -1 -1 0 38 21)" fill="#5B564F"/>
<rect x="12" y="22" width="1" height="4" transform="rotate(-90 12 22)" fill="#3A332C"/>
<rect x="12" y="22" width="1" height="6" transform="rotate(-90 12 22)" fill="#3A332C"/>
<rect x="11" y="21" width="1" height="9" transform="rotate(-90 11 21)" fill="#3A332C"/>
<rect x="11" y="20" width="1" height="9" transform="rotate(-90 11 20)" fill="#3A332C"/>
<rect x="13" y="19" width="1" height="6" transform="rotate(-90 13 19)" fill="#3A332C"/>
<rect x="14" y="18" width="1" height="2" transform="rotate(-90 14 18)" fill="#3A332C"/>
<rect x="14" y="18" width="1" height="2" transform="rotate(-90 14 18)" fill="#5B564F"/>
<rect x="12" y="20" width="1" height="1" transform="rotate(-90 12 20)" fill="#5B564F"/>
<rect x="16" y="20" width="1" height="2" transform="rotate(-90 16 20)" fill="#5B564F"/>
<rect x="13" y="22" width="1" height="2" transform="rotate(-90 13 22)" fill="#5B564F"/>
<rect x="25" y="2" width="1" height="4" transform="rotate(-90 25 2)" fill="#3A332C"/>
<rect x="25" y="2" width="1" height="6" transform="rotate(-90 25 2)" fill="#3A332C"/>
<rect x="24" y="1" width="1" height="9" transform="rotate(-90 24 1)" fill="#3A332C"/>
<rect x="26" y="2" width="1" height="2" transform="rotate(-90 26 2)" fill="#5B564F"/>
<rect x="24" y="40" width="1" height="9" transform="rotate(-90 24 40)" fill="#3A332C"/>
<rect x="26" y="39" width="1" height="6" transform="rotate(-90 26 39)" fill="#3A332C"/>
<rect x="27" y="38" width="1" height="2" transform="rotate(-90 27 38)" fill="#5B564F"/>
<rect x="25" y="40" width="1" height="1" transform="rotate(-90 25 40)" fill="#5B564F"/>
<rect x="29" y="40" width="1" height="2" transform="rotate(-90 29 40)" fill="#5B564F"/>
<rect width="1" height="4" transform="matrix(0 -1 -1 0 13 11)" fill="#3A332C"/>
<rect width="1" height="7" transform="matrix(0 -1 -1 0 13 11)" fill="#3A332C"/>
<rect width="1" height="9" transform="matrix(0 -1 -1 0 14 10)" fill="#3A332C"/>
<rect width="1" height="9" transform="matrix(0 -1 -1 0 14 9)" fill="#3A332C"/>
<rect width="1" height="8" transform="matrix(0 -1 -1 0 14 8)" fill="#3A332C"/>
<rect width="1" height="6" transform="matrix(0 -1 -1 0 13 7)" fill="#3A332C"/>
<rect width="1" height="2" transform="matrix(0 -1 -1 0 11 7)" fill="#3A332C"/>
<rect width="1" height="3" transform="matrix(0 -1 -1 0 12 6)" fill="#5B564F"/>
<rect width="1" height="1" transform="matrix(0 -1 -1 0 11 8)" fill="#5B564F"/>
<rect width="1" height="1" transform="matrix(0 -1 -1 0 7 10)" fill="#5B564F"/>
<rect width="1" height="1" transform="matrix(0 -1 -1 0 8 8)" fill="#5B564F"/>
<rect width="1" height="1" transform="matrix(0 -1 -1 0 12 9)" fill="#5B564F"/>
<rect width="1" height="2" transform="matrix(0 -1 -1 0 12 11)" fill="#5B564F"/>
<rect x="28" y="32" width="1" height="4" transform="rotate(-90 28 32)" fill="#3A332C"/>
<rect x="28" y="32" width="1" height="7" transform="rotate(-90 28 32)" fill="#3A332C"/>
<rect x="27" y="31" width="1" height="9" transform="rotate(-90 27 31)" fill="#3A332C"/>
<rect x="27" y="30" width="1" height="9" transform="rotate(-90 27 30)" fill="#3A332C"/>
<rect x="27" y="29" width="1" height="8" transform="rotate(-90 27 29)" fill="#3A332C"/>
<rect x="28" y="28" width="1" height="6" transform="rotate(-90 28 28)" fill="#3A332C"/>
<rect x="30" y="28" width="1" height="2" transform="rotate(-90 30 28)" fill="#3A332C"/>
<rect x="29" y="27" width="1" height="3" transform="rotate(-90 29 27)" fill="#5B564F"/>
<rect x="30" y="29" width="1" height="1" transform="rotate(-90 30 29)" fill="#5B564F"/>
<rect x="34" y="31" width="1" height="1" transform="rotate(-90 34 31)" fill="#5B564F"/>
<rect x="33" y="29" width="1" height="1" transform="rotate(-90 33 29)" fill="#5B564F"/>
<rect x="29" y="30" width="1" height="1" transform="rotate(-90 29 30)" fill="#5B564F"/>
<rect x="29" y="32" width="1" height="2" transform="rotate(-90 29 32)" fill="#5B564F"/>
</g>
<defs>
<clipPath id="clip0_76_285">
<rect width="40" height="40" fill="white" transform="matrix(0 -1 1 0 0 40)"/>
</clipPath>
</defs>
</svg>
