<svg width="6" height="15" viewBox="0 0 6 15" fill="none" xmlns="http://www.w3.org/2000/svg">
<rect x="1" y="10" width="4" height="4" fill="#737373"/>
<rect x="2" width="2" height="10" fill="#805233"/>
<rect x="5" y="11" width="1" height="2" fill="#A2A2A2"/>
<rect x="5" y="11" width="1" height="2" fill="#A2A2A2"/>
<rect x="5" y="11" width="1" height="2" fill="#A2A2A2"/>
<rect x="5" y="10" width="1" height="1" fill="#A2A2A2"/>
<rect x="5" y="10" width="1" height="1" fill="#A2A2A2"/>
<rect x="5" y="10" width="1" height="1" fill="#A2A2A2"/>
<rect x="1" y="10" width="1" height="1" fill="#8C8C8C"/>
<rect x="4" y="10" width="1" height="1" fill="#8C8C8C"/>
<rect y="11" width="1" height="2" fill="#A2A2A2"/>
<rect y="11" width="1" height="2" fill="#A2A2A2"/>
<rect y="11" width="1" height="2" fill="#A2A2A2"/>
<rect x="2" y="14" width="2" height="1" fill="#A2A2A2"/>
<rect x="2" y="14" width="2" height="1" fill="#A2A2A2"/>
<rect x="2" y="14" width="2" height="1" fill="#A2A2A2"/>
<rect x="1" y="13" width="1" height="1" fill="#A2A2A2"/>
<rect x="1" y="13" width="1" height="1" fill="#A2A2A2"/>
<rect x="1" y="13" width="1" height="1" fill="#A2A2A2"/>
<rect x="4" y="13" width="1" height="1" fill="#A2A2A2"/>
<rect x="4" y="13" width="1" height="1" fill="#A2A2A2"/>
<rect x="4" y="13" width="1" height="1" fill="#A2A2A2"/>
<rect y="10" width="1" height="1" fill="#BABABA"/>
</svg>
