<svg width="16" height="17" viewBox="0 0 16 17" fill="none" xmlns="http://www.w3.org/2000/svg">
<rect x="7" y="11" width="2" height="6" fill="#835119"/>
<rect x="6" y="15" width="1" height="2" fill="#835119"/>
<rect x="6" y="9" width="3" height="2" fill="#653F12"/>
<rect x="9" y="9" width="2" height="2" fill="#653F12"/>
<rect x="11" y="8" width="1" height="1" fill="#653F12"/>
<rect x="7" y="8" width="1" height="1" fill="#653F12"/>
<rect x="7" y="7" width="1" height="1" fill="#653F12"/>
<rect x="6" y="6" width="1" height="1" fill="#835119"/>
<rect x="5" y="5" width="1" height="1" fill="#835119"/>
<rect x="4" y="4" width="1" height="1" fill="#653F12"/>
<rect x="5" y="3" width="1" height="1" fill="#653F12"/>
<rect x="3" y="3" width="1" height="1" fill="#653F12"/>
<rect x="4" y="8" width="1" height="1" fill="#835119"/>
<rect x="5" y="10" width="1" height="1" fill="#6D8737"/>
<rect x="4" y="9" width="1" height="1" fill="#6D8737"/>
<rect x="2" y="8" width="2" height="1" fill="#6D8737"/>
<rect x="1" y="5" width="1" height="3" fill="#6D8737"/>
<rect x="2" y="3" width="1" height="1" fill="#6D8737"/>
<rect x="3" y="2" width="1" height="1" fill="#6D8737"/>
<rect x="5" y="2" width="10" height="1" fill="#6D8737"/>
<rect x="8" y="1" width="3" height="1" fill="#6D8737"/>
<rect x="6" y="3" width="3" height="1" fill="#6D8737"/>
<rect x="7" y="4" width="2" height="1" fill="#6D8737"/>
<rect x="7" y="5" width="3" height="1" fill="#6D8737"/>
<rect x="7" y="6" width="2" height="1" fill="#6D8737"/>
<rect x="4" y="2" width="1" height="2" fill="#6D8737"/>
<rect x="2" y="6" width="2" height="1" fill="#546323"/>
<rect x="2" y="5" width="3" height="1" fill="#546323"/>
<rect x="2" y="4" width="2" height="1" fill="#546323"/>
<rect x="8" y="7" width="3" height="2" fill="#546323"/>
<rect x="9" y="6" width="4" height="1" fill="#546323"/>
<rect x="11" y="7" width="1" height="1" fill="#546323"/>
<rect x="10" y="5" width="2" height="1" fill="#546323"/>
<rect x="5" y="4" width="2" height="1" fill="#546323"/>
<rect x="6" y="5" width="1" height="1" fill="#546323"/>
<rect x="9" y="3" width="7" height="1" fill="#546323"/>
<rect x="9" y="4" width="2" height="1" fill="#546323"/>
<rect x="12" y="4" width="4" height="1" fill="#546323"/>
<rect x="13" y="5" width="1" height="1" fill="#546323"/>
<rect x="12" y="8" width="1" height="1" fill="#546323"/>
<rect x="13" y="7" width="1" height="1" fill="#546323"/>
<rect x="13" y="8" width="1" height="1" fill="#546323"/>
<rect x="14" y="7" width="1" height="1" fill="#546323"/>
<rect x="14" y="6" width="1" height="1" fill="#546323"/>
<rect x="15" y="5" width="1" height="1" fill="#546323"/>
<rect x="15" y="6" width="1" height="1" fill="#546323"/>
<rect x="4" y="10" width="1" height="1" fill="#546323"/>
<rect x="3" y="9" width="1" height="1" fill="#546323"/>
<rect x="1" y="8" width="1" height="1" fill="#546323"/>
<rect x="6" y="7" width="1" height="2" fill="#546323"/>
<rect x="4" y="6" width="2" height="2" fill="#546323"/>
<rect x="5" y="8" width="1" height="1" fill="#546323"/>
<rect x="15" y="7" width="1" height="1" fill="#374618"/>
<rect x="3" y="10" width="1" height="1" fill="#374618"/>
<rect x="1" y="9" width="2" height="1" fill="#374618"/>
<rect y="5" width="1" height="4" fill="#374618"/>
<rect x="1" y="3" width="1" height="2" fill="#374618"/>
<rect x="2" y="2" width="1" height="1" fill="#374618"/>
<rect x="3" y="1" width="5" height="1" fill="#374618"/>
<rect x="8" width="4" height="1" fill="#374618"/>
<rect x="11" y="1" width="2" height="1" fill="#374618"/>
<rect x="14" y="8" width="1" height="1" fill="#374618"/>
<rect x="11" y="9" width="3" height="1" fill="#374618"/>
<rect x="5" y="9" width="1" height="1" fill="#835119"/>
<rect x="3" y="7" width="1" height="1" fill="#835119"/>
<rect x="2" y="7" width="1" height="1" fill="#835119"/>
<rect x="12" y="7" width="1" height="1" fill="#653F12"/>
<rect x="13" y="6" width="1" height="1" fill="#653F12"/>
<rect x="14" y="5" width="1" height="1" fill="#653F12"/>
<rect x="12" y="5" width="1" height="1" fill="#653F12"/>
<rect x="11" y="4" width="1" height="1" fill="#835119"/>
<rect x="9" y="11" width="2" height="6" fill="#653F12"/>
<rect x="11" y="15" width="1" height="2" fill="#653F12"/>
</svg>
