<svg width="7" height="7" viewBox="0 0 7 7" fill="none" xmlns="http://www.w3.org/2000/svg">
<g clip-path="url(#clip0_68_119)">
<rect width="3" height="2" transform="matrix(-1 0 0 1 5 4)" fill="#AA393B"/>
<rect width="5" height="3" transform="matrix(-1 0 0 1 6 2)" fill="#AA393B"/>
<rect width="2" height="2" transform="matrix(-1 0 0 1 6 0)" fill="#AA393B"/>
<rect width="2" height="2" transform="matrix(-1 0 0 1 3 0)" fill="#AA393B"/>
<rect x="3" y="6" width="1" height="1" fill="#AA393B"/>
<rect y="1" width="7" height="3" fill="#AA393B"/>
<rect width="2" height="1" transform="matrix(-1 0 0 1 6 0)" fill="#6C181A"/>
<rect width="4" height="2" transform="matrix(-1 0 0 1 7 1)" fill="#6C181A"/>
<rect width="5" height="2" transform="matrix(-1 0 0 1 6 3)" fill="#6C181A"/>
<rect width="1" height="1" transform="matrix(-1 0 0 1 4 6)" fill="#6C181A"/>
<rect width="3" height="1" transform="matrix(-1 0 0 1 5 5)" fill="#6C181A"/>
<rect width="1" height="1" transform="matrix(-1 0 0 1 7 3)" fill="#6C181A"/>
</g>
<defs>
<clipPath id="clip0_68_119">
<rect width="7" height="7" fill="white" transform="matrix(-1 0 0 -1 7 7)"/>
</clipPath>
</defs>
</svg>
